HIERARCHY
ROOT mixamorig:Hips
{
	OFFSET -0.000008 104.274872 1.554316
	CHANNELS 6 Xposition Yposition Zposition Xrotation Yrotation Zrotation
	JOINT mixamorig:Spine
	{
		OFFSET -0.000005 10.181595 0.131519
		CHANNELS 6 Xposition Yposition Zposition Xrotation Yrotation Zrotation
		JOINT mixamorig:Spine1
		{
			OFFSET -0.000000 9.893959 -1.470707
			CHANNELS 6 Xposition Yposition Zposition Xrotation Yrotation Zrotation
			JOINT mixamorig:Spine2
			{
				OFFSET -0.000000 9.220757 -1.370641
				CHANNELS 6 Xposition Yposition Zposition Xrotation Yrotation Zrotation
				JOINT mixamorig:Neck
				{
					OFFSET 0.000001 16.740417 -2.049036
					CHANNELS 6 Xposition Yposition Zposition Xrotation Yrotation Zrotation
					JOINT mixamorig:Head
					{
						OFFSET 0.000000 9.617874 1.685006
						CHANNELS 6 Xposition Yposition Zposition Xrotation Yrotation Zrotation
						JOINT mixamorig:HeadTop_End
						{
							OFFSET 0.000002 22.037354 7.501101
							CHANNELS 6 Xposition Yposition Zposition Xrotation Yrotation Zrotation
							End Site
							{
								OFFSET 0.000168 2310.654297 -282.823242
							}
						}
					}
				}
				JOINT mixamorig:RightShoulder
				{
					OFFSET -4.569970 11.014908 -2.160885
					CHANNELS 6 Xposition Yposition Zposition Xrotation Yrotation Zrotation
					JOINT mixamorig:RightArm
					{
						OFFSET -10.592851 -0.524811 -2.232101
						CHANNELS 6 Xposition Yposition Zposition Xrotation Yrotation Zrotation
						JOINT mixamorig:RightForeArm
						{
							OFFSET -27.841511 0.000031 -0.000004
							CHANNELS 6 Xposition Yposition Zposition Xrotation Yrotation Zrotation
							JOINT mixamorig:RightHand
							{
								OFFSET -28.328831 -0.000015 0.000015
								CHANNELS 6 Xposition Yposition Zposition Xrotation Yrotation Zrotation
								JOINT mixamorig:RightHandThumb1
								{
									OFFSET -2.464806 -1.573990 2.681852
									CHANNELS 6 Xposition Yposition Zposition Xrotation Yrotation Zrotation
									JOINT mixamorig:RightHandThumb2
									{
										OFFSET -3.215179 -1.872803 1.924282
										CHANNELS 6 Xposition Yposition Zposition Xrotation Yrotation Zrotation
										JOINT mixamorig:RightHandThumb3
										{
											OFFSET -2.654831 -1.527969 1.512609
											CHANNELS 6 Xposition Yposition Zposition Xrotation Yrotation Zrotation
											JOINT mixamorig:RightHandThumb4
											{
												OFFSET -2.018814 -1.152008 1.108052
												CHANNELS 6 Xposition Yposition Zposition Xrotation Yrotation Zrotation
												End Site
												{
													OFFSET -188.809540 -114.533607 132.431396
												}
											}
										}
									}
								}
								JOINT mixamorig:RightHandIndex1
								{
									OFFSET -9.108284 -0.517868 2.259835
									CHANNELS 6 Xposition Yposition Zposition Xrotation Yrotation Zrotation
									JOINT mixamorig:RightHandIndex2
									{
										OFFSET -3.699989 0.000000 0.001215
										CHANNELS 6 Xposition Yposition Zposition Xrotation Yrotation Zrotation
										JOINT mixamorig:RightHandIndex3
										{
											OFFSET -2.850006 0.000031 -0.000522
											CHANNELS 6 Xposition Yposition Zposition Xrotation Yrotation Zrotation
											JOINT mixamorig:RightHandIndex4
											{
												OFFSET -2.772186 -0.000015 -0.000020
												CHANNELS 6 Xposition Yposition Zposition Xrotation Yrotation Zrotation
												End Site
												{
													OFFSET -277.218445 0.000000 -0.050231
												}
											}
										}
									}
								}
								JOINT mixamorig:RightHandMiddle1
								{
									OFFSET -9.532516 -0.000031 -0.000023
									CHANNELS 6 Xposition Yposition Zposition Xrotation Yrotation Zrotation
									JOINT mixamorig:RightHandMiddle2
									{
										OFFSET -3.700005 -0.000015 0.003713
										CHANNELS 6 Xposition Yposition Zposition Xrotation Yrotation Zrotation
										JOINT mixamorig:RightHandMiddle3
										{
											OFFSET -2.949974 0.000015 -0.002054
											CHANNELS 6 Xposition Yposition Zposition Xrotation Yrotation Zrotation
											JOINT mixamorig:RightHandMiddle4
											{
												OFFSET -2.946640 0.000000 -0.000156
												CHANNELS 6 Xposition Yposition Zposition Xrotation Yrotation Zrotation
												End Site
												{
													OFFSET -294.664337 0.000000 -0.113670
												}
											}
										}
									}
								}
								JOINT mixamorig:RightHandRing1
								{
									OFFSET -9.103600 -0.043076 -1.865134
									CHANNELS 6 Xposition Yposition Zposition Xrotation Yrotation Zrotation
									JOINT mixamorig:RightHandRing2
									{
										OFFSET -3.379288 0.000000 -0.001055
										CHANNELS 6 Xposition Yposition Zposition Xrotation Yrotation Zrotation
										JOINT mixamorig:RightHandRing3
										{
											OFFSET -2.889687 -0.000015 0.000379
											CHANNELS 6 Xposition Yposition Zposition Xrotation Yrotation Zrotation
											JOINT mixamorig:RightHandRing4
											{
												OFFSET -2.638809 -0.000015 0.000941
												CHANNELS 6 Xposition Yposition Zposition Xrotation Yrotation Zrotation
												End Site
												{
													OFFSET -263.880371 0.000000 0.516020
												}
											}
										}
									}
								}
								JOINT mixamorig:RightHandPinky1
								{
									OFFSET -8.076683 -0.486710 -3.806280
									CHANNELS 6 Xposition Yposition Zposition Xrotation Yrotation Zrotation
									JOINT mixamorig:RightHandPinky2
									{
										OFFSET -3.600014 -0.000015 -0.003747
										CHANNELS 6 Xposition Yposition Zposition Xrotation Yrotation Zrotation
										JOINT mixamorig:RightHandPinky3
										{
											OFFSET -2.099983 0.000000 -0.005739
											CHANNELS 6 Xposition Yposition Zposition Xrotation Yrotation Zrotation
											JOINT mixamorig:RightHandPinky4
											{
												OFFSET -2.115768 -0.000031 -0.003680
												CHANNELS 6 Xposition Yposition Zposition Xrotation Yrotation Zrotation
												End Site
												{
													OFFSET -211.577087 0.000000 -0.350686
												}
											}
										}
									}
								}
							}
						}
					}
				}
				JOINT mixamorig:LeftShoulder
				{
					OFFSET 4.570447 11.014725 -2.160855
					CHANNELS 6 Xposition Yposition Zposition Xrotation Yrotation Zrotation
					JOINT mixamorig:LeftArm
					{
						OFFSET 10.592371 -0.524597 -2.232119
						CHANNELS 6 Xposition Yposition Zposition Xrotation Yrotation Zrotation
						JOINT mixamorig:LeftForeArm
						{
							OFFSET 27.841532 -0.000031 0.000026
							CHANNELS 6 Xposition Yposition Zposition Xrotation Yrotation Zrotation
							JOINT mixamorig:LeftHand
							{
								OFFSET 28.328846 -0.000061 0.000022
								CHANNELS 6 Xposition Yposition Zposition Xrotation Yrotation Zrotation
								JOINT mixamorig:LeftHandThumb1
								{
									OFFSET 2.466141 -1.576172 2.681732
									CHANNELS 6 Xposition Yposition Zposition Xrotation Yrotation Zrotation
									JOINT mixamorig:LeftHandThumb2
									{
										OFFSET 3.217812 -1.872070 1.916482
										CHANNELS 6 Xposition Yposition Zposition Xrotation Yrotation Zrotation
										JOINT mixamorig:LeftHandThumb3
										{
											OFFSET 2.656029 -1.528778 1.514513
											CHANNELS 6 Xposition Yposition Zposition Xrotation Yrotation Zrotation
											JOINT mixamorig:LeftHandThumb4
											{
												OFFSET 2.020889 -1.154053 1.115139
												CHANNELS 6 Xposition Yposition Zposition Xrotation Yrotation Zrotation
												End Site
												{
													OFFSET 190.885437 -115.081749 130.048782
												}
											}
										}
									}
								}
								JOINT mixamorig:LeftHandIndex1
								{
									OFFSET 9.109314 -0.518021 2.259871
									CHANNELS 6 Xposition Yposition Zposition Xrotation Yrotation Zrotation
									JOINT mixamorig:LeftHandIndex2
									{
										OFFSET 3.699989 0.000000 -0.000322
										CHANNELS 6 Xposition Yposition Zposition Xrotation Yrotation Zrotation
										JOINT mixamorig:LeftHandIndex3
										{
											OFFSET 2.850006 0.000000 0.000352
											CHANNELS 6 Xposition Yposition Zposition Xrotation Yrotation Zrotation
											JOINT mixamorig:LeftHandIndex4
											{
												OFFSET 2.774864 -0.000031 -0.000027
												CHANNELS 6 Xposition Yposition Zposition Xrotation Yrotation Zrotation
												End Site
												{
													OFFSET 277.486267 0.000000 -0.009857
												}
											}
										}
									}
								}
								JOINT mixamorig:LeftHandMiddle1
								{
									OFFSET 9.533394 0.000061 0.000044
									CHANNELS 6 Xposition Yposition Zposition Xrotation Yrotation Zrotation
									JOINT mixamorig:LeftHandMiddle2
									{
										OFFSET 3.699989 -0.000015 -0.000231
										CHANNELS 6 Xposition Yposition Zposition Xrotation Yrotation Zrotation
										JOINT mixamorig:LeftHandMiddle3
										{
											OFFSET 2.949997 -0.000015 -0.000059
											CHANNELS 6 Xposition Yposition Zposition Xrotation Yrotation Zrotation
											JOINT mixamorig:LeftHandMiddle4
											{
												OFFSET 2.952896 0.000031 0.000063
												CHANNELS 6 Xposition Yposition Zposition Xrotation Yrotation Zrotation
												End Site
												{
													OFFSET 295.289337 0.000000 0.022810
												}
											}
										}
									}
								}
								JOINT mixamorig:LeftHandRing1
								{
									OFFSET 9.104523 -0.042999 -1.865074
									CHANNELS 6 Xposition Yposition Zposition Xrotation Yrotation Zrotation
									JOINT mixamorig:LeftHandRing2
									{
										OFFSET 3.150009 -0.000031 0.000043
										CHANNELS 6 Xposition Yposition Zposition Xrotation Yrotation Zrotation
										JOINT mixamorig:LeftHandRing3
										{
											OFFSET 2.949982 -0.000015 0.000040
											CHANNELS 6 Xposition Yposition Zposition Xrotation Yrotation Zrotation
											JOINT mixamorig:LeftHandRing4
											{
												OFFSET 2.644348 0.000000 0.000057
												CHANNELS 6 Xposition Yposition Zposition Xrotation Yrotation Zrotation
												End Site
												{
													OFFSET 264.434631 0.000000 0.012105
												}
											}
										}
									}
								}
								JOINT mixamorig:LeftHandPinky1
								{
									OFFSET 8.077789 -0.486847 -3.806259
									CHANNELS 6 Xposition Yposition Zposition Xrotation Yrotation Zrotation
									JOINT mixamorig:LeftHandPinky2
									{
										OFFSET 3.599953 0.000031 0.014727
										CHANNELS 6 Xposition Yposition Zposition Xrotation Yrotation Zrotation
										JOINT mixamorig:LeftHandPinky3
										{
											OFFSET 2.100021 0.000015 0.007705
											CHANNELS 6 Xposition Yposition Zposition Xrotation Yrotation Zrotation
											JOINT mixamorig:LeftHandPinky4
											{
												OFFSET 2.125504 0.000031 0.007517
												CHANNELS 6 Xposition Yposition Zposition Xrotation Yrotation Zrotation
												End Site
												{
													OFFSET 212.550781 0.000000 0.625752
												}
											}
										}
									}
								}
							}
						}
					}
				}
			}
		}
	}
	JOINT mixamorig:RightUpLeg
	{
		OFFSET -8.207787 -6.751648 -1.599560
		CHANNELS 6 Xposition Yposition Zposition Xrotation Yrotation Zrotation
		JOINT mixamorig:RightLeg
		{
			OFFSET -0.000002 -44.370117 0.345942
			CHANNELS 6 Xposition Yposition Zposition Xrotation Yrotation Zrotation
			JOINT mixamorig:RightFoot
			{
				OFFSET 0.000003 -44.423679 -3.043532
				CHANNELS 6 Xposition Yposition Zposition Xrotation Yrotation Zrotation
				JOINT mixamorig:RightToeBase
				{
					OFFSET -0.000002 -8.728671 10.710558
					CHANNELS 6 Xposition Yposition Zposition Xrotation Yrotation Zrotation
					JOINT mixamorig:RightToe_End
					{
						OFFSET -0.000001 -0.000679 9.278119
						CHANNELS 6 Xposition Yposition Zposition Xrotation Yrotation Zrotation
						End Site
						{
							OFFSET 0.000000 -0.067690 927.812134
						}
					}
				}
			}
		}
	}
	JOINT mixamorig:LeftUpLeg
	{
		OFFSET 8.207793 -6.751686 -1.599556
		CHANNELS 6 Xposition Yposition Zposition Xrotation Yrotation Zrotation
		JOINT mixamorig:LeftLeg
		{
			OFFSET -0.000004 -44.370014 0.346954
			CHANNELS 6 Xposition Yposition Zposition Xrotation Yrotation Zrotation
			JOINT mixamorig:LeftFoot
			{
				OFFSET -0.000001 -44.423672 -3.044401
				CHANNELS 6 Xposition Yposition Zposition Xrotation Yrotation Zrotation
				JOINT mixamorig:LeftToeBase
				{
					OFFSET -0.000002 -8.728669 10.710558
					CHANNELS 6 Xposition Yposition Zposition Xrotation Yrotation Zrotation
					JOINT mixamorig:LeftToe_End
					{
						OFFSET -0.000003 -0.000679 9.278133
						CHANNELS 6 Xposition Yposition Zposition Xrotation Yrotation Zrotation
						End Site
						{
							OFFSET 0.000000 -0.068021 927.813477
						}
					}
				}
			}
		}
	}
}
MOTION
Frames: 3
Frame Time: 0.033333
0.000006 104.270477 1.554256 0.000010 0.000003 -0.000113 -0.000005 10.181587 0.131522 0.000001 -0.000003 0.000084 -0.000000 9.893967 -1.470711 0.000001 0.000000 -0.000000 -0.000000 9.220802 -1.370642 0.000000 -0.000000 -0.000000 0.000001 16.740433 -2.049030 0.000000 -0.000000 -0.000000 0.000000 9.617859 1.685014 0.000000 0.000000 0.000000 0.000002 22.037384 7.501101 0.000000 -0.000000 0.000000 -4.569968 11.014880 -2.160881 0.000008 0.000001 -0.000038 -10.592870 -0.524795 -2.231866 75.470838 36.496962 -28.628690 -27.841516 0.000010 0.000547 -48.782072 104.004254 60.262575 -28.328814 0.000019 0.000033 -0.000321 -0.000047 0.000007 -2.464404 -1.573828 2.682344 -42.071851 -158.457124 3.350560 -3.215266 -1.872549 1.924638 151.232942 32.686277 14.728523 -2.654964 -1.527879 1.513052 146.300548 27.689298 -30.035405 -2.018850 -1.152010 1.108051 -0.000003 -0.000004 0.000005 -9.108369 -0.517570 2.260160 107.321178 15.654331 -21.232056 -3.700059 0.000306 0.001541 104.230456 13.159125 -16.834699 -2.850095 0.000356 -0.000219 102.727391 11.491673 -14.348426 -2.772156 0.000000 -0.000026 -0.000000 -0.000000 0.000000 -9.532587 0.000270 0.000238 91.968019 16.336450 -17.046902 -3.700054 0.000331 0.003970 93.531709 10.547229 -11.115305 -2.950067 0.000336 -0.001785 97.792524 11.563884 -13.232005 -2.946649 -0.000000 -0.000165 -0.000000 -0.000002 0.000001 -9.103691 -0.042761 -1.864875 92.584225 17.728099 -18.485524 -3.379309 0.000322 -0.000821 92.107970 5.170192 -5.380660 -2.889759 0.000379 0.000641 100.394020 4.808708 -5.822536 -2.638817 -0.000002 0.000940 -0.000002 0.000000 0.000000 -8.076736 -0.486387 -3.805985 90.881322 19.714457 -19.857680 -3.600032 0.000289 -0.003514 93.592054 5.863372 -5.877469 -2.100003 0.000338 -0.005484 95.970039 3.183148 -3.298432 -2.115764 -0.000026 -0.003677 -0.000004 0.000002 -0.000008 4.570446 11.014691 -2.160851 -0.000018 0.000010 -0.000021 10.592539 -0.524527 -2.232408 76.046957 -62.624290 50.877024 27.841719 -0.000049 -0.000103 267.700577 -77.986226 279.755341 28.328842 -0.000014 0.000020 0.000021 -0.000088 -0.000001 2.466177 -1.576150 2.681854 82.530952 135.002514 -136.226374 3.217823 -1.871989 1.916547 106.844041 148.700281 -153.835394 2.656043 -1.528737 1.514614 116.359594 166.104723 -160.757313 2.020899 -1.154070 1.115150 0.000003 0.000006 0.000006 9.109240 -0.517867 2.260110 -93.618787 -27.967958 -29.709878 3.699781 0.000089 -0.000121 35.745730 -135.487717 76.484014 2.849821 0.000018 0.000480 186.182692 -35.549352 -160.877606 2.774873 -0.000050 -0.000040 0.000002 0.000003 0.000003 9.533395 0.000171 0.000271 -80.506620 -9.969470 -8.441888 3.699940 0.000175 0.000028 266.926962 -18.185433 -19.168321 2.949959 0.000164 0.000188 264.611801 -15.245903 -16.733089 2.952873 -0.000017 0.000060 0.000000 -0.000001 0.000000 9.104516 -0.042911 -1.864845 -72.698191 -12.719323 -9.378588 3.149958 0.000195 0.000312 276.590095 -15.155671 -13.522724 2.949956 0.000187 0.000290 272.541296 -10.857331 -10.389892 2.644316 0.000044 0.000066 -0.000000 0.000000 -0.000003 8.077773 -0.486819 -3.806074 -54.178946 -10.712960 -5.673631 3.599949 0.000083 0.014948 301.618449 -3.327037 -2.078174 2.100002 0.000078 0.007931 295.075210 -1.058875 -0.925461 2.125505 -0.000029 0.007514 0.000000 -0.000001 -0.000001 -8.207786 -6.751667 -1.599560 -0.077001 -0.000003 0.000080 -0.000002 -44.370110 0.345938 0.153719 -0.000000 -0.000000 0.000000 -44.423679 -3.043532 -0.076700 0.000000 -0.000002 -0.000006 -8.728667 10.710559 -0.000009 -0.000000 -0.000000 -0.000001 -0.000679 9.278123 0.000000 -0.000000 -0.000000 8.207792 -6.751710 -1.599556 -0.074518 -0.000003 0.000081 -0.000002 -44.370014 0.346960 0.148822 0.000002 0.000000 -0.000001 -44.423664 -3.044403 -0.074314 0.000000 -0.000002 -0.000004 -8.728671 10.710558 0.000007 -0.000000 -0.000000 0.000000 -0.000680 9.278137 -0.000000 0.000000 -0.000001 
0.000006 104.270477 1.554256 0.000010 0.000003 -0.000113 -0.000005 10.181587 0.131522 0.000001 -0.000003 0.000084 -0.000000 9.893967 -1.470711 0.000001 0.000000 -0.000000 -0.000000 9.220802 -1.370642 0.000000 -0.000000 -0.000000 0.000001 16.740433 -2.049030 0.000000 -0.000000 -0.000000 0.000000 9.617859 1.685014 0.000000 0.000000 0.000000 0.000002 22.037384 7.501101 0.000000 -0.000000 0.000000 -4.569968 11.014880 -2.160881 0.000008 0.000001 -0.000038 -10.592853 -0.524809 -2.231832 75.600140 43.600427 -34.473433 -27.841526 -0.000002 0.000555 -47.986672 102.851625 58.329003 -28.328840 0.000022 0.000024 -0.000319 -0.000045 0.000009 -2.464408 -1.573788 2.682339 -47.157153 -163.055699 -8.102149 -3.215271 -1.872560 1.924632 151.426441 32.644227 14.143073 -2.654955 -1.527889 1.513055 147.410140 27.523868 -30.136434 -2.018831 -1.151985 1.108065 -0.000001 -0.000001 0.000004 -9.108377 -0.517565 2.260157 106.701386 15.709498 -21.071584 -3.700064 0.000303 0.001546 104.134997 14.257063 -18.201715 -2.850078 0.000363 -0.000204 103.448187 12.381655 -15.653492 -2.772163 0.000000 -0.000018 -0.000001 -0.000001 -0.000000 -9.532594 0.000261 0.000228 90.451417 16.696611 -16.971125 -3.700077 0.000325 0.003955 93.233810 11.707959 -12.283372 -2.950056 0.000335 -0.001778 98.490385 12.166519 -14.090968 -2.946639 0.000001 -0.000158 0.000001 -0.000001 -0.000000 -9.103702 -0.042753 -1.864876 91.642513 17.886044 -18.351301 -3.379310 0.000330 -0.000820 91.992656 5.575715 -5.789759 -2.889747 0.000380 0.000668 100.553280 4.992898 -6.060626 -2.638805 -0.000002 0.000941 -0.000000 0.000002 -0.000002 -8.076749 -0.486389 -3.805985 89.984723 19.522527 -19.363697 -3.600020 0.000287 -0.003511 92.748484 5.815585 -5.741721 -2.099998 0.000335 -0.005471 95.762503 2.874447 -2.946209 -2.115775 -0.000040 -0.003670 0.000001 -0.000001 -0.000006 4.570446 11.014691 -2.160851 -0.000018 0.000010 -0.000021 10.592539 -0.524520 -2.232400 75.718323 -63.652090 51.510777 27.841724 -0.000070 -0.000098 272.802810 -77.944343 284.782825 28.328825 -0.000014 0.000016 0.000021 -0.000089 0.000003 2.466176 -1.576162 2.681875 77.533275 139.528074 -134.668340 3.217836 -1.871979 1.916552 101.919509 149.830745 -151.516286 2.656066 -1.528762 1.514630 114.839440 167.678426 -160.429341 2.020903 -1.154081 1.115149 0.000000 0.000002 0.000001 9.109229 -0.517886 2.260119 -92.880901 -29.292274 -30.729632 3.699826 0.000120 -0.000113 56.727409 -134.028502 103.689921 2.849786 0.000138 0.000541 209.305287 -39.619677 -108.053087 2.774871 -0.000046 -0.000027 0.000001 0.000000 0.000000 9.533369 0.000174 0.000286 -81.332247 -12.792444 -10.997408 3.699938 0.000157 0.000027 270.954725 -18.862201 -18.554603 2.949971 0.000160 0.000185 269.418997 -13.859484 -14.001165 2.952871 -0.000049 0.000078 -0.000000 -0.000000 0.000001 9.104504 -0.042924 -1.864824 -74.345639 -14.729870 -11.196601 3.149967 0.000196 0.000311 277.243334 -14.742400 -13.004261 2.949971 0.000184 0.000301 273.411544 -8.007207 -7.546650 2.644317 0.000019 0.000062 -0.000000 -0.000000 0.000000 8.077777 -0.486828 -3.806059 -57.323592 -11.939289 -6.732380 3.599948 0.000097 0.014937 299.626137 -4.331656 -2.743883 2.099991 0.000100 0.007928 292.390973 -0.645863 -0.699734 2.125506 -0.000015 0.007509 -0.000001 -0.000002 -0.000001 -8.207786 -6.751667 -1.599560 -0.077001 -0.000003 0.000080 -0.000002 -44.370110 0.345938 0.153719 -0.000000 -0.000000 0.000000 -44.423679 -3.043532 -0.076700 0.000000 -0.000002 -0.000006 -8.728667 10.710559 -0.000009 -0.000000 -0.000000 -0.000001 -0.000679 9.278123 0.000000 -0.000000 -0.000000 8.207792 -6.751710 -1.599556 -0.074518 -0.000003 0.000081 -0.000002 -44.370014 0.346960 0.148822 0.000002 0.000000 -0.000001 -44.423664 -3.044403 -0.074314 0.000000 -0.000002 -0.000004 -8.728671 10.710558 0.000007 -0.000000 -0.000000 0.000000 -0.000680 9.278137 -0.000000 0.000000 -0.000001 
0.000006 104.270477 1.554256 0.000010 0.000003 -0.000113 -0.000005 10.181587 0.131522 0.000001 -0.000003 0.000084 -0.000000 9.893967 -1.470711 0.000001 0.000000 -0.000000 -0.000000 9.220802 -1.370642 0.000000 -0.000000 -0.000000 0.000001 16.740433 -2.049030 0.000000 -0.000000 -0.000000 0.000000 9.617859 1.685014 0.000000 0.000000 0.000000 0.000002 22.037384 7.501101 0.000000 -0.000000 0.000000 -4.569968 11.014880 -2.160881 0.000008 0.000001 -0.000038 -10.592853 -0.524801 -2.231831 75.753491 43.441270 -34.432216 -27.841524 0.000018 0.000544 -47.531549 103.061517 57.989713 -28.328846 0.000022 0.000021 -0.000321 -0.000048 0.000011 -2.464407 -1.573806 2.682325 -45.755809 -162.550729 -4.598133 -3.215276 -1.872552 1.924636 152.084448 32.611397 12.990541 -2.654961 -1.527888 1.513061 147.420494 27.517538 -30.186902 -2.018834 -1.151998 1.108065 -0.000002 -0.000001 0.000002 -9.108369 -0.517556 2.260163 106.677207 16.383756 -21.954728 -3.700069 0.000308 0.001551 104.484074 14.647061 -18.812738 -2.850087 0.000354 -0.000208 104.059797 12.567128 -16.060164 -2.772170 -0.000015 -0.000019 -0.000001 -0.000001 -0.000000 -9.532579 0.000260 0.000234 90.472460 16.887089 -17.169518 -3.700074 0.000340 0.003956 93.505850 11.190797 -11.792976 -2.950047 0.000332 -0.001789 98.170070 11.901894 -13.708173 -2.946626 0.000030 -0.000151 -0.000001 -0.000001 0.000001 -9.103688 -0.042753 -1.864874 91.010392 17.996906 -18.265956 -3.379310 0.000340 -0.000840 92.275507 5.252242 -5.481785 -2.889743 0.000355 0.000646 99.637693 4.831263 -5.771836 -2.638817 -0.000013 0.000945 -0.000000 -0.000000 0.000000 -8.076752 -0.486395 -3.806009 89.478080 20.085978 -19.754350 -3.600023 0.000300 -0.003505 92.864488 6.235106 -6.192119 -2.100004 0.000324 -0.005483 95.134263 3.291509 -3.368609 -2.115791 -0.000052 -0.003678 0.000000 0.000000 -0.000003 4.570446 11.014691 -2.160851 -0.000018 0.000010 -0.000021 10.592533 -0.524517 -2.232400 75.172024 -63.203306 50.681079 27.841719 -0.000067 -0.000109 269.886073 -78.250315 281.638179 28.328823 -0.000013 0.000026 0.000019 -0.000086 0.000000 2.466176 -1.576116 2.681896 71.502853 137.768973 -129.808688 3.217847 -1.871979 1.916544 95.675118 146.269198 -147.182599 2.656069 -1.528743 1.514636 112.157150 165.648275 -159.075529 2.020883 -1.154083 1.115148 0.000002 0.000006 0.000006 9.109231 -0.517852 2.260113 -96.985558 -26.248046 -29.514521 3.699815 0.000136 -0.000102 56.136881 -138.070102 108.602788 2.849806 0.000231 0.000544 221.724688 -34.764495 -78.798929 2.774880 -0.000048 -0.000027 0.000005 -0.000002 -0.000003 9.533363 0.000203 0.000292 -84.968755 -12.263954 -11.233587 3.699943 0.000177 0.000024 266.560399 -18.354870 -19.468604 2.949965 0.000202 0.000171 264.110738 -14.517265 -16.074119 2.952859 -0.000017 0.000062 -0.000001 -0.000001 -0.000000 9.104492 -0.042883 -1.864830 -79.199301 -13.918974 -11.533474 3.149955 0.000199 0.000290 271.831092 -15.461679 -14.981928 2.949956 0.000165 0.000297 268.208606 -9.819223 -10.130763 2.644317 0.000028 0.000055 -0.000001 0.000000 0.000000 8.077746 -0.486794 -3.806040 -61.412020 -12.640173 -7.731000 3.599952 0.000093 0.014970 295.383743 -6.549161 -4.375736 2.100001 0.000139 0.007932 288.846378 -3.330822 -2.653821 2.125508 0.000016 0.007501 -0.000002 0.000001 0.000001 -8.207786 -6.751667 -1.599560 -0.077001 -0.000003 0.000080 -0.000002 -44.370110 0.345938 0.153719 -0.000000 -0.000000 0.000000 -44.423679 -3.043532 -0.076700 0.000000 -0.000002 -0.000006 -8.728667 10.710559 -0.000009 -0.000000 -0.000000 -0.000001 -0.000679 9.278123 0.000000 -0.000000 -0.000000 8.207792 -6.751710 -1.599556 -0.074518 -0.000003 0.000081 -0.000002 -44.370014 0.346960 0.148822 0.000002 0.000000 -0.000001 -44.423664 -3.044403 -0.074314 0.000000 -0.000002 -0.000004 -8.728671 10.710558 0.000007 -0.000000 -0.000000 0.000000 -0.000680 9.278137 -0.000000 0.000000 -0.000001 
